<svg xmlns="http://www.w3.org/2000/svg" width="159" height="201.881" viewBox="0 0 159 201.881">
  <g id="Logo" transform="translate(-166.896 -380.811)">
    <g id="suitcase-svgrepo-com" transform="translate(215.994 435.469)">
      <path id="Caminho_7" data-name="Caminho 7" d="M61.81,55.6V48.584a4.474,4.474,0,0,0-4.493-4.444H39.112a4.474,4.474,0,0,0-4.493,4.444V55.6H0v66.378H96.429V55.6Zm14.519,45.051L65.358,95.87l8.164-18.328,10.971,4.781ZM71.466,72.3l-11.4,25.6,15.032,6.551v13.549H21.335V59.575H75.094V73.884ZM38.636,48.584a.473.473,0,0,1,.475-.47H57.317a.473.473,0,0,1,.475.47V55.6H38.636V48.584ZM4.018,59.575h13.3v58.43H4.018Zm88.393,58.43h-13.3V104.262L89.79,80.289,79.112,75.635V59.575h13.3Z" transform="translate(0 -44.14)"/>
      <path id="Caminho_8" data-name="Caminho 8" d="M128.972,218.323l20.722,8.954,5.823-13.475-20.722-8.954Zm21.21-2.405-2.6,6.024-13.271-5.735,2.6-6.024Z" transform="translate(-96.156 -177.143)"/>
    </g>
    <g id="location-svgrepo-com" transform="translate(172.556 380.811)">
      <path id="Caminho_9" data-name="Caminho 9" d="M122.785,0A43.876,43.876,0,0,0,78.958,43.826c0,9.733,6.215,25.6,19,48.512,9.043,16.2,17.938,29.716,18.312,30.283l6.515,9.875,6.515-9.875c.374-.567,9.269-14.078,18.311-30.283,12.785-22.911,19-38.779,19-48.512A43.876,43.876,0,0,0,122.785,0Zm0,66.248A22.718,22.718,0,1,1,145.5,43.53,22.718,22.718,0,0,1,122.785,66.248Z" transform="translate(-78.958)" fill="red"/>
    </g>
    <text id="Logo-2" data-name="Logo" transform="translate(166.896 567.692)" font-size="59" font-family="SegoeUI-Bold, Segoe UI" font-weight="700"><tspan x="0" y="0">travel</tspan></text>
  </g>
</svg>
